GIL01_xslow2_RRA_states
nRows=8
nColumns=47

# SIMM Motion File Header:
name GIL01_xslow2_RRA_states
datacolumns 47
datarows 8
otherdata 1
range 0.97483000000000053000 0.97833000000000059000
endheader
time	pelvis_tx	pelvis_ty	pelvis_tz	pelvis_tilt	pelvis_list	pelvis_rotation	hip_flexion_r	hip_adduction_r	hip_rotation_r	knee_angle_r	ankle_angle_r	subtalar_angle_r	mtp_angle_r	hip_flexion_l	hip_adduction_l	hip_rotation_l	knee_angle_l	ankle_angle_l	subtalar_angle_l	mtp_angle_l	lumbar_extension	lumbar_bending	lumbar_rotation	pelvis_tx_u	pelvis_ty_u	pelvis_tz_u	pelvis_tilt_u	pelvis_list_u	pelvis_rotation_u	hip_flexion_r_u	hip_adduction_r_u	hip_rotation_r_u	knee_angle_r_u	ankle_angle_r_u	subtalar_angle_r_u	mtp_angle_r_u	hip_flexion_l_u	hip_adduction_l_u	hip_rotation_l_u	knee_angle_l_u	ankle_angle_l_u	subtalar_angle_l_u	mtp_angle_l_u	lumbar_extension_u	lumbar_bending_u	lumbar_rotation_u
      0.97483000000000053000	      1.14441773602446160000	      0.78926094399361146000	     -0.25071556164347059000	     -2.40675559320105270000	     -2.15920735811313810000	      7.80925848177161000000	     21.45662472861903300000	      0.02491159192377034900	      0.09664433251412961300	     -8.36204445461428140000	     -9.93012288722868950000	      0.00000000000000216693	     -0.00000000000000663272	    -13.88652768253537100000	     -4.21571164004883770000	     -7.79002726279815770000	    -11.20214134929446800000	      6.25000888449138350000	      0.00000000000000239532	     -0.00000000000035075992	      1.47407205177688370000	      4.28129261333590620000	     -6.14736564398732190000	      0.73629411110074816000	      0.15578492215916850000	      0.21152379131373911000	     -8.23327326515847520000	    -12.98515946599458500000	     -8.79171981874325500000	    -62.35153500183237400000	     40.88443353956572000000	      4.75524163625707170000	     25.08173482289849700000	     44.06479815149135200000	      0.00000000000006496343	     -0.00000000000016789912	     56.91575866029383200000	    -44.09006773610047200000	     -0.83909238022638388000	   -159.64410181911580000000	   -126.95464434294098000000	     -0.00000000000022953652	     -0.00000000000016082739	     13.50800919426978000000	     11.98317125925245300000	     26.92929377470241500000
      0.97533000000000059000	      1.14478575059715020000	      0.78933893815437728000	     -0.25060980035203440000	     -2.41087503179898730000	     -2.16562752007685560000	      7.80489043488205870000	     21.42540199976965100000	      0.04528784067653259700	      0.09881920498665566800	     -8.34939701286137390000	     -9.90811911992079430000	      0.00000000000000220000	     -0.00000000000000671640	    -13.85788778423056300000	     -4.23768962982343120000	     -7.79038770768575170000	    -11.28221353316280700000	      6.18622280869750970000	      0.00000000000000228120	     -0.00000000000035083893	      1.48080385461296720000	      4.28717579640064720000	     -6.13386369703398150000	      0.73576379561453120000	      0.15619039399088142000	      0.21152098693897020000	     -8.24432463350621700000	    -12.69553526938604900000	     -8.68045248993137800000	    -62.53880988946562500000	     40.62053451249926200000	      3.94531968759566580000	     25.50706443935571600000	     43.94955341138526700000	      0.00000000000006889389	     -0.00000000000015722682	     57.64374091415750500000	    -43.82177621470087600000	     -0.60240160945908894000	   -160.64413460797971000000	   -128.19186157419824000000	     -0.00000000000022663346	     -0.00000000000015679646	     13.41913018182697900000	     11.54969457484067500000	     27.07798849439887300000
      0.97583000000000053000	      1.14515349944830170000	      0.78941713304833050000	     -0.25050404103988011000	     -2.41499976363391640000	     -2.17190296177787490000	      7.80057803569476250000	     21.39408650422187100000	      0.06553212362980752300	      0.10059076863952786000	     -8.33653838986529120000	     -9.88617408784039140000	      0.00000000000000223460	     -0.00000000000000679538	    -13.82888403441829400000	     -4.25953332234128630000	     -7.79062939166026250000	    -11.36278499117323200000	      6.12181494740330660000	      0.00000000000000216856	     -0.00000000000035091944	      1.48749111928318260000	      4.29284247174974710000	     -6.12028816675620750000	      0.73523125014414148000	      0.15658782968357918000	      0.21151588261981102000	     -8.25445079691511370000	    -12.40632185033583600000	     -8.56914690022306580000	    -62.72257151684807800000	     40.35661910104370500000	      3.14209710518970730000	     25.92639514253430000000	     43.82978395116074200000	      0.00000000000006113428	     -0.00000000000014924598	     58.37116543354657900000	    -43.55292155912006500000	     -0.36407481957786669000	   -161.64120974691551000000	   -129.44153091357200000000	     -0.00000000000022372111	     -0.00000000000016801935	     13.32987523546659700000	     11.11720151490294700000	     27.22361552507767600000
      0.97633000000000059000	      1.14552098149616150000	      0.78949552463274431000	     -0.25039828485765447000	     -2.41912932563352580000	     -2.17803392255586510000	      7.79632128990816930000	     21.36268001335843500000	      0.08564446648009795000	      0.10196247053578116000	     -8.32347163043458060000	     -9.86429006078663130000	      0.00000000000000226136	     -0.00000000000000686548	    -13.79951672451063900000	     -4.28124246799426440000	     -7.79075151312817660000	    -11.44385423528375500000	      6.05677923647279840000	      0.00000000000000205720	     -0.00000000000035100391	      1.49413367044039180000	      4.29829318207607350000	     -6.10664060296119260000	      0.73469659856273306000	      0.15697715701906434000	      0.21150844899055407000	     -8.26363515206616130000	    -12.11759258562781800000	     -8.45782995258171330000	    -62.90282225582414100000	     40.09274434429330100000	      2.34588590746121820000	     26.33964881197625700000	     43.70566501264485000000	      0.00000000000005123816	     -0.00000000000013448751	     59.09795470304131000000	    -43.28356692620059900000	     -0.12413211925249082000	   -162.63523778864140000000	   -130.70344714698970000000	     -0.00000000000022136805	     -0.00000000000016598106	     13.24026392858773900000	     10.68581397959796000000	     27.36611372961895200000
      0.97683000000000053000	      1.14588819571336200000	      0.78957410884153223000	     -0.25029253298392190000	     -2.42326323925383090000	     -2.18402064682889120000	      7.79212020326437570000	     21.33118426644344000000	      0.10562488361543189000	      0.10293787494569120000	     -8.31019976503658240000	     -9.84246911569247370000	      0.00000000000000228810	     -0.00000000000000693324	    -13.76978619770697800000	     -4.30281681607697840000	     -7.79075325784768150000	    -11.52541970730618600000	      5.99110949864878430000	      0.00000000000000194927	     -0.00000000000035109444	      1.50073132609633060000	      4.30352848955998990000	     -6.09292258333711610000	      0.73415994663615025000	      0.15735830096543241000	      0.21149865732714915000	     -8.27186231314793650000	    -11.82941851996467400000	     -8.34652809639664460000	    -63.07956583209885800000	     39.82896389551140000000	      1.55699783245923150000	     26.74675781964455700000	     43.57738830177267900000	      0.00000000000005674061	     -0.00000000000013346138	     59.82403506667705500000	    -43.01377355274208000000	      0.11740569335687556000	   -163.62613462823083000000	   -131.97737199855635000000	     -0.00000000000020836893	     -0.00000000000020370869	     13.15031004653890200000	     10.25565001961352300000	     27.50542997692701200000
      0.97733000000000059000	      1.14625514112700340000	      0.78965288155741675000	     -0.25018678659742810000	     -2.42740102583987880000	     -2.18986344557651340000	      7.78797475449982280000	     21.29960103171029200000	      0.12547345559195139000	      0.10352073948568360000	     -8.29672590914375260000	     -9.82071333724993780000	      0.00000000000000231666	     -0.00000000000000699852	    -13.73969282008370900000	     -4.32425617877670820000	     -7.79063384563253170000	    -11.60747983371195200000	      5.92479989998162450000	      0.00000000000000184598	     -0.00000000000035119889	      1.50728392564432980000	      4.30854905583171990000	     -6.07913571173537730000	      0.73362140063485859000	      0.15773118671689698000	      0.21148648319414903000	     -8.27911680095451170000	    -11.54187183867713000000	     -8.23527031234965530000	    -63.25280405963724900000	     39.56533518370112300000	      0.77573717321206981000	     27.14764692810532100000	     43.44512245774943400000	      0.00000000000005547886	     -0.00000000000012695504	     60.54933062310685400000	    -42.74360391065985000000	      0.36051396432119670000	   -164.61381293121221000000	   -133.26308278387683000000	     -0.00000000000020957836	     -0.00000000000019859047	     13.06002719635869800000	      9.82682903389765630000	     27.64151361332776000000
      0.97783000000000053000	      1.14662181681288190000	      0.78973183863901497000	     -0.25008104690188532000	     -2.43154219156635420000	     -2.19556263475257560000	      7.78388492094236990000	     21.26793204599010100000	      0.14519025292637072000	      0.10371493396851313000	     -8.28305316534277840000	     -9.79902462640808030000	      0.00000000000000234481	     -0.00000000000000706151	    -13.70923700973158100000	     -4.34556036725274720000	     -7.79039248619312200000	    -11.69003297033478900000	      5.85784449384736390000	      0.00000000000000173971	     -0.00000000000035129835	      1.51379129974094970000	      4.31335556151740820000	     -6.06528161563558220000	      0.73308104861819134000	      0.15809573659980805000	      0.21147190228657825000	     -8.28538435674419200000	    -11.25502207249232900000	     -8.12408481623078950000	    -63.42254036097072100000	     39.30191169662821700000	      0.00240833763238471530	     27.54225188057774800000	     43.30905702669456000000	      0.00000000000004862841	     -0.00000000000011507699	     61.27376933392297100000	    -42.47311826214206600000	      0.60516788771220498000	   -165.59819055583878000000	   -134.56032459720674000000	     -0.00000000000021403601	     -0.00000000000020951744	     12.96942315094815400000	      9.39946617814205960000	     27.77432169883947600000
      0.97833000000000059000	      1.14698822188926950000	      0.78981097589187033000	     -0.24997531509961671000	     -2.43568624331190220000	     -2.20111859551504760000	      7.77985065252897370000	     21.23617907470723400000	      0.16477541096682077000	      0.10352451922916325000	     -8.26918471649714170000	     -9.77740488551890150000	      0.00000000000000236863	     -0.00000000000000712085	    -13.67841920579756000000	     -4.36672925455946360000	     -7.79002842486834620000	    -11.77307746013478800000	      5.79023769337416020000	      0.00000000000000163085	     -0.00000000000035139432	      1.52025329650303620000	      4.31794878435715910000	     -6.05136194267230550000	      0.73253897918529209000	      0.15845187318959505000	      0.21145489466868239000	     -8.29065057332406140000	    -10.96893988044048400000	     -8.01300244853474730000	    -63.58877627937293700000	     39.03875071698335800000	     -0.76269136331152032000	     27.93050071621947300000	     43.16935931130622400000	      0.00000000000004436622	     -0.00000000000013029411	     61.99727678927005300000	    -42.20237809096092000000	      0.85133871178070608000	   -166.57918205160877000000	   -135.86885740148969000000	     -0.00000000000022670932	     -0.00000000000016328371	     12.87850543932118100000	      8.97367796021996260000	     27.90381387392702500000
